# xmcd CD database file
#
# Track frame offsets:
#	150
#	17127
#	33750
#	47275
#	76545
#	93775
#	111407
#	127122
#	139937
#	154102
#
# Disc length: 2622 seconds
#
# Revision: 1
# Processed by: cddbd v1.4PL0 Copyright (c) Steve Scherf et al.
# Submitted via: CDex 1.40Beta9
#
DISCID=700a3c0a
DTITLE=Paul Gilbert and Jimi Kidd - Raw Blues Power
DYEAR=2002
DGENRE=Blues
TTITLE0=Girls Watching
TTITLE1=A 180
TTITLE2=Pacific Coast Highway
TTITLE3=Good Foot
TTITLE4=12 Days Of The Blues
TTITLE5=Freedom
TTITLE6=Stranded
TTITLE7=Play Guitar
TTITLE8=Sookie Sookie
TTITLE9=Blues Power
EXTD=YEAR: 2002 ID3G: 0
EXTT0=
EXTT1=
EXTT2=
EXTT3=
EXTT4=
EXTT5=
EXTT6=
EXTT7=
EXTT8=
EXTT9=
PLAYORDER=
